<?xml version="1.0" encoding="UTF-8"?>
<!DOCTYPE svg PUBLIC "-//W3C//DTD SVG 1.1//EN" "http://www.w3.org/Graphics/SVG/1.1/DTD/svg11.dtd">
<!-- Creator: CorelDRAW 2026 -->
<svg xmlns="http://www.w3.org/2000/svg" xml:space="preserve" width="31.4912mm" height="23.9221mm" version="1.1" style="shape-rendering:geometricPrecision; text-rendering:geometricPrecision; image-rendering:optimizeQuality; fill-rule:evenodd; clip-rule:evenodd"
viewBox="0 0 44.43 33.75"
 xmlns:xlink="http://www.w3.org/1999/xlink"
 xmlns:xodm="http://www.corel.com/coreldraw/odm/2003">
 <defs>
  <style type="text/css">
   <![CDATA[
    .fil0 {fill:#FEFEFE;fill-rule:nonzero}
   ]]>
  </style>
 </defs>
 <g id="Capa_x0020_1">
  <metadata id="CorelCorpID_0Corel-Layer"/>
  <path class="fil0" d="M22.22 0c0.35,0.18 0.42,0.59 0.54,0.93 0.26,0.86 0.57,1.7 0.89,2.54 1.16,0.57 2.37,1.02 3.56,1.52 -0.25,0.3 -0.66,0.32 -1.01,0.45 -0.83,0.23 -1.65,0.53 -2.44,0.88 -0.59,1.25 -0.79,2.7 -1.67,3.79 -0.62,-1.19 -0.76,-2.57 -1.23,-3.83 -1.14,-0.66 -2.49,-0.84 -3.65,-1.47 0.7,-0.5 1.6,-0.59 2.41,-0.88 0.47,-0.19 1.19,-0.17 1.36,-0.75 0.44,-1.05 0.8,-2.12 1.23,-3.18zm-19.71 18.48c-0.63,0.98 -0.92,2.2 -0.73,3.36 0.26,1.43 1.14,2.73 2.35,3.52 1.75,1.17 3.86,1.66 5.93,1.91 0.6,0.05 1.21,0.14 1.81,-0.01 -0.19,-2.78 -0.35,-5.72 -1.87,-8.14 -0.74,-1.3 -2.14,-2.12 -3.6,-2.35 -1.49,-0.24 -3.05,0.5 -3.9,1.72zm11.16 -7.69c-2.29,0.59 -3.52,3.39 -2.61,5.53 0.59,1.72 2.82,2.66 4.41,1.72 1.16,-0.64 1.09,-2.56 -0.07,-3.15 -0.68,-0.43 -1.78,0.16 -1.67,0.99 0.05,0.68 0.74,1.02 1.15,1.47 -1.31,0.5 -2.68,-1.06 -2.13,-2.32 0.46,-1.6 2.71,-1.81 3.75,-0.66 1.3,1.21 1.11,3.53 -0.35,4.53 -1.3,0.94 -3.03,0.66 -4.44,0.13 0.61,0.9 1.4,1.65 2.19,2.39 1.05,0.94 2.11,1.87 3.24,2.71 0.36,0.27 0.78,0.47 1.2,0.61 0.64,-1.15 1.09,-2.39 1.57,-3.61 0.46,-1.3 0.99,-2.6 1.25,-3.96 -0.65,-1.87 -1.48,-3.77 -2.96,-5.15 -1.18,-1.13 -2.95,-1.67 -4.54,-1.23zm23.78 5.11c-1.7,0.32 -3.1,1.62 -3.78,3.18 -1.12,2.5 -1.15,5.34 -0.7,8 0.77,0.04 1.53,-0.13 2.28,-0.27 2.09,-0.44 4.19,-1.23 5.72,-2.77 1.37,-1.29 2.15,-3.35 1.57,-5.19 -0.67,-2.05 -2.97,-3.41 -5.09,-2.95zm-9.61 -5.39c-1.45,0.46 -2.55,1.63 -3.31,2.91 -0.68,1.19 -1.25,2.51 -1.36,3.88 0.5,1.62 1.3,3.14 2.02,4.67 0.41,0.82 0.73,1.69 1.26,2.45 1.12,-0.85 2.11,-1.84 3.15,-2.79 0.99,-0.91 1.93,-1.92 2.53,-3.13 -1.06,0.49 -2.3,0.88 -3.44,0.4 -1.64,-0.55 -2.44,-2.64 -1.62,-4.16 0.53,-1.34 2.36,-1.98 3.55,-1.06 0.85,0.58 1.05,1.9 0.35,2.68 -0.44,0.45 -1.12,0.43 -1.68,0.26 0.51,-0.23 1.12,-0.58 1.05,-1.24 0.12,-0.81 -0.87,-1.32 -1.54,-0.97 -1.24,0.52 -1.29,2.45 -0.22,3.18 0.79,0.57 1.86,0.39 2.66,-0.07 1.72,-0.82 2.48,-3.13 1.64,-4.83 -0.85,-1.81 -3.12,-2.81 -5.02,-2.17zm-1.92 -1.06c1.9,-1.06 4.36,-1.05 6.22,0.11 1.88,1.1 3.03,3.25 2.95,5.42 1.43,-0.9 3.24,-1.14 4.85,-0.63 1.51,0.43 2.82,1.44 3.67,2.75 1.08,1.69 1.06,3.91 0.25,5.71 -0.68,1.65 -2.01,2.87 -3.09,4.24 -1.65,2 -2.94,4.27 -3.98,6.64 -2.35,-1.92 -5.09,-3.33 -7.98,-4.23 -5.49,-1.78 -11.63,-0.97 -16.7,1.68 -1.43,0.78 -2.77,1.72 -4.12,2.62 -0.89,-2.17 -2.18,-4.19 -3.83,-5.86 -0.98,-1.05 -2.17,-1.91 -2.96,-3.12 -1.03,-1.45 -1.41,-3.33 -1.06,-5.07 0.35,-1.51 1.21,-2.95 2.56,-3.76 1.89,-1.2 4.46,-1.23 6.37,-0.07 -0.11,-1.31 -0.02,-2.7 0.67,-3.85 0.87,-1.68 2.63,-2.82 4.51,-2.99 1.87,-0.24 3.77,0.5 5.16,1.73 0.6,0.51 1.05,1.18 1.66,1.7 0.25,-0.39 0.53,-0.76 0.8,-1.14 0.42,0.46 0.6,1.06 0.86,1.6 0.85,-1.33 1.77,-2.7 3.2,-3.47zm-3.6 10.04c-1.17,-0.01 -2.02,1.62 -1.19,2.51 0.7,0.76 2.07,0.26 2.32,-0.69 0.4,-0.79 -0.21,-1.85 -1.12,-1.83zm0.08 -1.32c0.92,0.12 1.89,0.58 2.26,1.49 0.59,1.33 -0.11,3 -1.41,3.6 -1.25,0.7 -3.02,0.01 -3.49,-1.34 -0.65,-1.7 0.81,-3.83 2.64,-3.75zm-0.26 2.23c-0.96,-0.07 -1.5,1.15 -1.1,1.92 0.39,0.84 1.69,1.08 2.28,0.32 0.72,-0.86 -0.07,-2.3 -1.18,-2.25zm0.02 -1.2c1.31,0.05 2.55,1.09 2.62,2.43 0.21,1.49 -1.3,2.87 -2.76,2.61 -1.56,-0.2 -2.73,-1.92 -2.24,-3.44 0.28,-1.03 1.34,-1.69 2.38,-1.6z"/>
 </g>
</svg>
