<?xml version="1.0" encoding="UTF-8"?>
<!DOCTYPE svg PUBLIC "-//W3C//DTD SVG 1.1//EN" "http://www.w3.org/Graphics/SVG/1.1/DTD/svg11.dtd">
<!-- Creator: CorelDRAW 2026 -->
<svg xmlns="http://www.w3.org/2000/svg" xml:space="preserve" width="19.8535mm" height="19.8474mm" version="1.1" style="shape-rendering:geometricPrecision; text-rendering:geometricPrecision; image-rendering:optimizeQuality; fill-rule:evenodd; clip-rule:evenodd"
viewBox="0 0 11.8 11.79"
 xmlns:xlink="http://www.w3.org/1999/xlink"
 xmlns:xodm="http://www.corel.com/coreldraw/odm/2003">
 <defs>
  <style type="text/css">
   <![CDATA[
    .fil0 {fill:#FEFEFE;fill-rule:nonzero}
   ]]>
  </style>
 </defs>
 <g id="Capa_x0020_1">
  <metadata id="CorelCorpID_0Corel-Layer"/>
  <path class="fil0" d="M6.34 1.02l-0 0.33c0,0.25 -0.02,0.45 -0.3,0.54l-0.01 0c-0.05,0.02 -0.13,0.01 -0.18,0l-0.01 -0c-0.46,-0.08 -0.33,-0.54 -0.36,-0.87 -2.06,0.12 -3.87,1.77 -4.34,3.75l-0.08 0.44c-0.01,0.07 -0.01,0.16 -0.03,0.23l0.42 -0c0.07,0 0.15,-0.01 0.21,0.02l0.01 0c0.46,0.18 0.44,0.85 -0.24,0.85l-0.4 -0.01c0.01,0.21 0.05,0.41 0.1,0.61 0.44,2.06 2.22,3.67 4.35,3.84 0.01,-0.15 -0.02,-0.48 0.02,-0.61 0.11,-0.38 0.66,-0.4 0.82,-0.05l0 0.01c0.04,0.09 0.03,0.2 0.03,0.29l0 0.36c2.15,-0.16 3.9,-1.78 4.35,-3.86l0.06 -0.36c0.01,-0.07 0.01,-0.15 0.03,-0.22 -0.19,-0.03 -0.45,0.03 -0.62,-0.01 -0.43,-0.11 -0.44,-0.76 0.03,-0.85l0.01 -0c0.07,-0.01 0.15,-0.01 0.22,-0.01l0.34 -0c-0.02,-0.08 -0.02,-0.18 -0.03,-0.26 -0.26,-1.92 -1.85,-3.63 -3.73,-4.05 -0.22,-0.05 -0.44,-0.08 -0.66,-0.11l0 0zm-0.66 -1.02l0.42 -0c1.37,0.05 2.67,0.57 3.71,1.48 3.19,2.81 2.44,7.99 -1.46,9.79 -0.7,0.32 -1.45,0.48 -2.21,0.52 -0.62,0.01 -1.21,-0.05 -1.81,-0.21 -1.9,-0.53 -3.45,-2.02 -4.05,-3.89 -0.75,-2.33 0.09,-4.94 2,-6.44 0.97,-0.76 2.17,-1.19 3.4,-1.25l0 0z"/>
  <path class="fil0" d="M5.84 2.39l0.08 -0.01c0.44,-0 0.44,0.37 0.44,0.68l-0 2.38c0.16,0.01 0.33,0 0.49,0l1.24 0c0.06,0 0.13,-0 0.19,0.01 0.47,0.07 0.47,0.76 0.02,0.86 -0.08,0.02 -0.17,0.01 -0.25,0.02l-1.9 0c-0.28,0 -0.54,0.02 -0.65,-0.33l-0.01 -0.03c-0.01,-0.06 -0.01,-0.12 -0.01,-0.18l-0 -2.38c0,-0.4 -0.12,-0.88 0.36,-1.01l0 0z"/>
 </g>
</svg>
