<?xml version="1.0" encoding="UTF-8"?>
<!DOCTYPE svg PUBLIC "-//W3C//DTD SVG 1.1//EN" "http://www.w3.org/Graphics/SVG/1.1/DTD/svg11.dtd">
<!-- Creator: CorelDRAW 2026 -->
<svg xmlns="http://www.w3.org/2000/svg" xml:space="preserve" width="14.4864mm" height="14.4819mm" version="1.1" style="shape-rendering:geometricPrecision; text-rendering:geometricPrecision; image-rendering:optimizeQuality; fill-rule:evenodd; clip-rule:evenodd"
viewBox="0 0 6.42 6.42"
 xmlns:xlink="http://www.w3.org/1999/xlink"
 xmlns:xodm="http://www.corel.com/coreldraw/odm/2003">
 <defs>
  <style type="text/css">
   <![CDATA[
    .fil1 {fill:#FEFEFE}
    .fil0 {fill:#FEFEFE;fill-rule:nonzero}
   ]]>
  </style>
 </defs>
 <g id="Capa_x0020_1">
  <metadata id="CorelCorpID_0Corel-Layer"/>
  <path class="fil0" d="M3.45 0.55l-0 0.18c0,0.14 -0.01,0.24 -0.16,0.29l-0.01 0c-0.03,0.01 -0.07,0.01 -0.1,0l-0.01 -0c-0.25,-0.04 -0.18,-0.29 -0.2,-0.47 -1.12,0.07 -2.1,0.96 -2.36,2.04l-0.05 0.24c-0.01,0.04 -0.01,0.08 -0.02,0.12l0.23 -0c0.04,0 0.08,-0 0.11,0.01l0.01 0c0.25,0.1 0.24,0.46 -0.13,0.46l-0.22 -0.01c0.01,0.11 0.03,0.22 0.05,0.33 0.24,1.12 1.21,2 2.36,2.09 0.01,-0.08 -0.01,-0.26 0.01,-0.33 0.06,-0.21 0.36,-0.22 0.45,-0.03l0 0c0.02,0.05 0.02,0.11 0.02,0.16l0 0.2c1.17,-0.09 2.12,-0.97 2.37,-2.1l0.03 -0.2c0.01,-0.04 0.01,-0.08 0.02,-0.12 -0.1,-0.02 -0.25,0.01 -0.34,-0.01 -0.24,-0.06 -0.24,-0.42 0.02,-0.46l0.01 -0c0.04,-0.01 0.08,-0.01 0.12,-0.01l0.19 -0c-0.01,-0.05 -0.01,-0.1 -0.02,-0.14 -0.14,-1.04 -1,-1.97 -2.03,-2.2 -0.12,-0.03 -0.24,-0.04 -0.36,-0.06l0 0zm-0.36 -0.55l0.23 -0c0.75,0.03 1.45,0.31 2.02,0.81 1.74,1.53 1.33,4.35 -0.79,5.33 -0.38,0.18 -0.79,0.26 -1.2,0.28 -0.34,0 -0.66,-0.03 -0.98,-0.12 -1.03,-0.29 -1.88,-1.1 -2.2,-2.12 -0.41,-1.27 0.05,-2.69 1.09,-3.5 0.53,-0.42 1.18,-0.65 1.85,-0.68l0 0z"/>
  <path class="fil1" d="M1.5 4.09c-0.07,-0.13 -0.02,-0.29 0.11,-0.36l1.33 -0.72 0 -1.03c0,-0.14 0.11,-0.25 0.25,-0.25l0 0c0.14,0 0.25,0.11 0.25,0.25l-0 1.2c-0,0.06 -0.02,0.12 -0.06,0.17 -0.02,0.03 -0.05,0.06 -0.09,0.07l-1.43 0.77c-0.13,0.07 -0.29,0.02 -0.36,-0.11z"/>
 </g>
</svg>
