<?xml version="1.0" encoding="UTF-8"?>
<!DOCTYPE svg PUBLIC "-//W3C//DTD SVG 1.1//EN" "http://www.w3.org/Graphics/SVG/1.1/DTD/svg11.dtd">
<!-- Creator: CorelDRAW 2026 -->
<svg xmlns="http://www.w3.org/2000/svg" xml:space="preserve" width="16.6775mm" height="15.5236mm" version="1.1" style="shape-rendering:geometricPrecision; text-rendering:geometricPrecision; image-rendering:optimizeQuality; fill-rule:evenodd; clip-rule:evenodd"
viewBox="0 0 8.31 7.73"
 xmlns:xlink="http://www.w3.org/1999/xlink"
 xmlns:xodm="http://www.corel.com/coreldraw/odm/2003">
 <defs>
  <style type="text/css">
   <![CDATA[
    .fil0 {fill:#FEFEFE;fill-rule:nonzero}
   ]]>
  </style>
 </defs>
 <g id="Capa_x0020_1">
  <metadata id="CorelCorpID_0Corel-Layer"/>
  <path class="fil0" d="M4.38 1.78l0 -0.81 0.36 0 0 -0.45 -0.36 0 0 -0.52 -0.45 0 0 0.52 -0.36 0 0 0.45 0.36 0 0 0.81 -3.93 2.47 0.24 0.38 3.91 -2.46 3.91 2.46 0.24 -0.38 -3.93 -2.47zm2.05 4.76l-0.82 0 0 -1.2c0,-0.23 0.18,-0.41 0.41,-0.41 0.11,0 0.22,0.05 0.29,0.12 0.07,0.07 0.12,0.18 0.12,0.29l0 1.2zm-3.67 0l-0.82 0 0 -1.2c0,-0.11 0.05,-0.22 0.12,-0.29 0.07,-0.07 0.18,-0.12 0.29,-0.12 0.23,0 0.41,0.18 0.41,0.41l0 1.2zm1.4 -3.95l-2.99 1.89 0 3.24 2.22 0 0 -2.06c0,-0.41 0.33,-0.75 0.75,-0.75l0.05 0c0.41,0 0.75,0.33 0.75,0.75l0 2.06 2.22 0 -0 -3.24 -2.99 -1.89z"/>
 </g>
</svg>
