<?xml version="1.0" encoding="UTF-8"?>
<!DOCTYPE svg PUBLIC "-//W3C//DTD SVG 1.1//EN" "http://www.w3.org/Graphics/SVG/1.1/DTD/svg11.dtd">
<!-- Creator: CorelDRAW 2026 -->
<svg xmlns="http://www.w3.org/2000/svg" xml:space="preserve" width="66.0752mm" height="12.3322mm" version="1.1" style="shape-rendering:geometricPrecision; text-rendering:geometricPrecision; image-rendering:optimizeQuality; fill-rule:evenodd; clip-rule:evenodd"
viewBox="0 0 135.83 25.35"
 xmlns:xlink="http://www.w3.org/1999/xlink"
 xmlns:xodm="http://www.corel.com/coreldraw/odm/2003">
 <defs>
  <style type="text/css">
   <![CDATA[
    .str0 {stroke:#373435;stroke-width:0.35;stroke-miterlimit:22.9256}
    .fil0 {fill:#FEFEFE}
    .fil1 {fill:#81703A;fill-rule:nonzero}
   ]]>
  </style>
 </defs>
 <g id="Capa_x0020_1">
  <metadata id="CorelCorpID_0Corel-Layer"/>
  <path class="fil0 str0" d="M12.68 0.17l110.48 0c6.88,0 12.5,5.63 12.5,12.5l0 0c0,6.88 -5.63,12.5 -12.5,12.5l-110.48 0c-6.88,0 -12.5,-5.63 -12.5,-12.5l0 0c0,-6.88 5.63,-12.5 12.5,-12.5z"/>
  <path class="fil1" d="M26.16 17.92l-8.36 0 0.09 -0.27c0.5,0 0.86,-0.1 1.09,-0.29 0.23,-0.19 0.44,-0.63 0.64,-1.31l1.92 -6.73c0.11,-0.37 0.16,-0.66 0.16,-0.87 0,-0.21 -0.08,-0.37 -0.23,-0.5 -0.16,-0.12 -0.46,-0.19 -0.91,-0.22l0.09 -0.27 5.01 0 -0.09 0.27c-0.48,0.01 -0.84,0.12 -1.08,0.33 -0.24,0.21 -0.45,0.63 -0.64,1.27l-1.76 6.15c-0.23,0.78 -0.34,1.26 -0.34,1.43 0,0.11 0.06,0.2 0.17,0.29 0.12,0.09 0.3,0.13 0.56,0.13 0.86,0 1.68,-0.2 2.48,-0.59 0.8,-0.39 1.47,-0.98 2.02,-1.76l0.33 0 -1.15 2.93zm6.88 -10.68l-2.64 8.72c-0.15,0.52 -0.23,0.84 -0.23,0.97 0,0.07 0.02,0.12 0.07,0.16 0.04,0.04 0.09,0.07 0.14,0.07 0.09,0 0.18,-0.03 0.26,-0.1 0.25,-0.19 0.53,-0.51 0.83,-0.97l0.3 0.13c-0.49,0.75 -0.97,1.28 -1.44,1.59 -0.33,0.22 -0.67,0.32 -1.03,0.32 -0.34,0 -0.61,-0.09 -0.81,-0.27 -0.2,-0.18 -0.3,-0.4 -0.3,-0.65 0,-0.19 0.06,-0.5 0.19,-0.92l2.15 -7.1c0.12,-0.39 0.18,-0.65 0.18,-0.78 0,-0.12 -0.06,-0.22 -0.17,-0.29 -0.16,-0.1 -0.39,-0.15 -0.71,-0.13l0.06 -0.3 2.68 -0.46 0.48 0zm3.91 3.55l-1.64 5.22c-0.08,0.24 -0.12,0.41 -0.12,0.5 0,0.04 0.02,0.08 0.05,0.11 0.04,0.04 0.09,0.06 0.14,0.06 0.23,0 0.54,-0.21 0.92,-0.63 0.55,-0.61 1.13,-1.49 1.74,-2.63l0.72 -2.35 1.94 -0.06 -1.52 5.11c-0.13,0.43 -0.19,0.68 -0.19,0.74 0,0.04 0.02,0.08 0.06,0.12 0.04,0.04 0.08,0.06 0.12,0.06 0.07,0 0.14,-0.03 0.21,-0.09 0.19,-0.14 0.43,-0.44 0.74,-0.87l0.27 0.18c-0.72,1.25 -1.5,1.87 -2.37,1.87 -0.32,0 -0.57,-0.08 -0.75,-0.24 -0.18,-0.16 -0.28,-0.37 -0.28,-0.63 0,-0.28 0.07,-0.63 0.2,-1.06l0.39 -1.31c-0.66,0.97 -1.14,1.62 -1.44,1.96 -0.46,0.51 -0.84,0.85 -1.16,1.01 -0.31,0.17 -0.61,0.25 -0.9,0.25 -0.27,0 -0.5,-0.1 -0.7,-0.3 -0.19,-0.2 -0.29,-0.45 -0.29,-0.75 0,-0.26 0.07,-0.61 0.22,-1.05l0.97 -3.08c0.14,-0.5 0.22,-0.84 0.22,-1.02 0,-0.08 -0.02,-0.14 -0.06,-0.2 -0.04,-0.06 -0.1,-0.11 -0.19,-0.14 -0.08,-0.03 -0.23,-0.05 -0.43,-0.05l0.06 -0.3 2.61 -0.46 0.46 0zm6.32 7.34l-0.28 0c0.02,-0.42 0.02,-0.74 0.02,-0.95 0,-0.59 -0.04,-1.43 -0.13,-2.53 -0.09,-1.1 -0.19,-1.84 -0.3,-2.21 -0.09,-0.27 -0.2,-0.47 -0.35,-0.59 -0.1,-0.08 -0.22,-0.12 -0.38,-0.12 -0.09,0 -0.19,0.01 -0.32,0.03l0 -0.28 2.56 -0.68c0.51,1.4 0.76,3.2 0.75,5.38 0.75,-0.72 1.27,-1.3 1.55,-1.75 0.28,-0.45 0.43,-0.82 0.43,-1.12 0,-0.23 -0.09,-0.48 -0.27,-0.72 -0.18,-0.24 -0.29,-0.42 -0.33,-0.52 -0.04,-0.1 -0.07,-0.22 -0.07,-0.34 0,-0.27 0.09,-0.49 0.26,-0.67 0.18,-0.18 0.4,-0.27 0.66,-0.27 0.28,0 0.5,0.09 0.66,0.27 0.22,0.25 0.32,0.55 0.32,0.89 0,0.35 -0.06,0.7 -0.19,1.04 -0.13,0.34 -0.34,0.74 -0.65,1.21 -0.3,0.46 -0.64,0.88 -1.02,1.27 -0.69,0.7 -1.67,1.59 -2.94,2.67zm8.38 -10.89c0.32,0 0.59,0.11 0.81,0.33 0.22,0.22 0.33,0.49 0.33,0.8 0,0.31 -0.11,0.58 -0.33,0.8 -0.22,0.22 -0.49,0.33 -0.8,0.33 -0.31,0 -0.58,-0.11 -0.8,-0.33 -0.22,-0.22 -0.33,-0.49 -0.33,-0.8 0,-0.32 0.11,-0.58 0.33,-0.8 0.22,-0.22 0.49,-0.33 0.8,-0.33zm0.63 3.55l-1.7 5.42c-0.09,0.31 -0.14,0.51 -0.14,0.61 0,0.06 0.02,0.12 0.07,0.17 0.04,0.05 0.09,0.08 0.14,0.08 0.08,0 0.17,-0.04 0.26,-0.12 0.23,-0.2 0.5,-0.56 0.82,-1.07l0.27 0.16c-0.78,1.41 -1.61,2.11 -2.49,2.11 -0.34,0 -0.6,-0.09 -0.8,-0.28 -0.2,-0.18 -0.3,-0.42 -0.3,-0.7 0,-0.19 0.05,-0.43 0.14,-0.72l1.18 -3.68c0.11,-0.35 0.17,-0.62 0.17,-0.8 0,-0.11 -0.05,-0.21 -0.16,-0.3 -0.1,-0.09 -0.25,-0.13 -0.43,-0.13 -0.08,0 -0.18,0 -0.3,0.01l0.09 -0.32 2.7 -0.43 0.48 0zm7.76 0.11l-1.51 5.11 -0.16 0.62c-0.02,0.08 -0.02,0.13 -0.02,0.17 0,0.06 0.02,0.11 0.07,0.16 0.04,0.04 0.09,0.07 0.13,0.07 0.11,0 0.25,-0.08 0.44,-0.24 0.08,-0.07 0.26,-0.3 0.55,-0.71l0.27 0.14c-0.37,0.66 -0.75,1.15 -1.16,1.45 -0.41,0.3 -0.86,0.46 -1.33,0.46 -0.29,0 -0.51,-0.07 -0.67,-0.22 -0.15,-0.15 -0.23,-0.34 -0.23,-0.57 0,-0.2 0.08,-0.57 0.25,-1.11l0.19 -0.62c-0.6,1.02 -1.17,1.74 -1.72,2.16 -0.32,0.24 -0.66,0.36 -1.02,0.36 -0.47,0 -0.81,-0.19 -1.03,-0.58 -0.21,-0.39 -0.32,-0.82 -0.32,-1.31 0,-0.72 0.22,-1.55 0.66,-2.49 0.44,-0.94 1.03,-1.69 1.75,-2.26 0.59,-0.47 1.15,-0.71 1.67,-0.71 0.29,0 0.52,0.08 0.7,0.25 0.18,0.17 0.3,0.47 0.39,0.91l0.28 -0.94 1.82 -0.11zm-2.47 1.47c0,-0.42 -0.07,-0.71 -0.19,-0.9 -0.09,-0.13 -0.22,-0.19 -0.38,-0.19 -0.16,0 -0.33,0.08 -0.5,0.23 -0.35,0.32 -0.72,0.96 -1.12,1.93 -0.4,0.97 -0.6,1.8 -0.6,2.51 0,0.27 0.04,0.47 0.14,0.59 0.09,0.12 0.19,0.18 0.3,0.18 0.23,0 0.47,-0.13 0.71,-0.4 0.34,-0.38 0.65,-0.84 0.92,-1.39 0.49,-0.96 0.74,-1.81 0.74,-2.56zm15.43 -5.12l-2.61 8.61c-0.17,0.54 -0.25,0.86 -0.25,0.98 0,0.06 0.02,0.11 0.06,0.14 0.04,0.04 0.08,0.06 0.13,0.06 0.09,0 0.19,-0.04 0.3,-0.13 0.19,-0.14 0.42,-0.42 0.69,-0.82l0.28 0.15c-0.72,1.27 -1.52,1.9 -2.4,1.9 -0.31,0 -0.55,-0.08 -0.71,-0.24 -0.17,-0.16 -0.25,-0.37 -0.25,-0.61 0,-0.24 0.07,-0.58 0.2,-1.03l0.24 -0.79c-0.64,1.13 -1.2,1.88 -1.67,2.26 -0.36,0.28 -0.71,0.41 -1.05,0.41 -0.39,0 -0.71,-0.16 -0.98,-0.47 -0.27,-0.31 -0.4,-0.77 -0.4,-1.37 0,-0.76 0.17,-1.52 0.51,-2.26 0.34,-0.74 0.74,-1.37 1.18,-1.86 0.45,-0.5 0.88,-0.85 1.28,-1.07 0.41,-0.21 0.81,-0.32 1.2,-0.32 0.2,0 0.38,0.04 0.54,0.13 0.16,0.09 0.34,0.24 0.54,0.48l0.6 -1.91c0.15,-0.49 0.23,-0.84 0.23,-1.05 0,-0.13 -0.05,-0.23 -0.15,-0.33 -0.11,-0.09 -0.24,-0.13 -0.42,-0.13 -0.08,0 -0.18,0.01 -0.3,0.02l0.06 -0.3 2.65 -0.46 0.48 0zm-3.47 4.88c0,-0.31 -0.06,-0.54 -0.19,-0.68 -0.13,-0.14 -0.27,-0.22 -0.44,-0.22 -0.17,0 -0.35,0.08 -0.54,0.25 -0.37,0.33 -0.76,0.99 -1.17,1.98 -0.4,0.99 -0.61,1.83 -0.61,2.5 0,0.25 0.04,0.43 0.13,0.55 0.09,0.12 0.19,0.18 0.3,0.18 0.18,0 0.37,-0.08 0.55,-0.25 0.44,-0.39 0.88,-1.06 1.31,-2.01 0.43,-0.95 0.65,-1.72 0.65,-2.3zm5.07 2.9c-0.04,0.33 -0.07,0.61 -0.07,0.82 0,0.39 0.11,0.69 0.34,0.92 0.22,0.23 0.52,0.35 0.9,0.35 0.36,0 0.72,-0.08 1.08,-0.23 0.36,-0.16 0.78,-0.42 1.26,-0.81l0.24 0.19c-0.59,0.67 -1.16,1.15 -1.72,1.43 -0.56,0.28 -1.18,0.43 -1.85,0.43 -0.86,0 -1.45,-0.2 -1.78,-0.61 -0.33,-0.41 -0.49,-0.88 -0.49,-1.42 0,-0.84 0.24,-1.68 0.74,-2.52 0.49,-0.84 1.16,-1.52 2,-2.02 0.84,-0.51 1.69,-0.76 2.54,-0.76 0.43,0 0.76,0.1 0.98,0.31 0.22,0.2 0.33,0.46 0.33,0.77 0,0.38 -0.11,0.74 -0.32,1.09 -0.3,0.48 -0.68,0.87 -1.13,1.16 -0.45,0.3 -0.96,0.52 -1.52,0.67 -0.38,0.1 -0.88,0.18 -1.52,0.23zm0.07 -0.39c0.45,-0.07 0.81,-0.16 1.06,-0.27 0.25,-0.11 0.5,-0.3 0.74,-0.55 0.24,-0.25 0.45,-0.57 0.63,-0.96 0.18,-0.39 0.26,-0.75 0.26,-1.08 0,-0.14 -0.04,-0.25 -0.12,-0.34 -0.08,-0.08 -0.18,-0.12 -0.3,-0.12 -0.25,0 -0.53,0.17 -0.84,0.51 -0.57,0.63 -1.04,1.56 -1.42,2.81zm14.26 -3.84l-0.33 2.38 -0.28 0c-0.04,-0.61 -0.23,-1.09 -0.56,-1.44 -0.34,-0.35 -0.7,-0.53 -1.08,-0.53 -0.24,0 -0.43,0.07 -0.58,0.21 -0.16,0.14 -0.23,0.3 -0.23,0.5 0,0.16 0.03,0.32 0.1,0.46 0.07,0.14 0.22,0.34 0.45,0.59 0.81,0.87 1.3,1.47 1.48,1.8 0.18,0.33 0.26,0.68 0.26,1.05 0,0.4 -0.1,0.78 -0.31,1.14 -0.2,0.36 -0.51,0.65 -0.92,0.86 -0.41,0.22 -0.83,0.33 -1.27,0.33 -0.3,0 -0.66,-0.06 -1.1,-0.17 -0.29,-0.08 -0.5,-0.12 -0.65,-0.12 -0.13,0 -0.23,0.02 -0.3,0.05 -0.07,0.04 -0.15,0.11 -0.24,0.23l-0.28 0 0.38 -2.55 0.25 0c0.18,0.62 0.35,1.07 0.5,1.33 0.16,0.27 0.36,0.48 0.62,0.64 0.26,0.16 0.51,0.24 0.75,0.24 0.28,0 0.51,-0.09 0.7,-0.27 0.18,-0.18 0.28,-0.39 0.28,-0.64 0,-0.24 -0.06,-0.48 -0.18,-0.7 -0.12,-0.23 -0.4,-0.58 -0.83,-1.06 -0.6,-0.65 -0.99,-1.16 -1.18,-1.51 -0.13,-0.26 -0.2,-0.55 -0.2,-0.88 0,-0.56 0.2,-1.02 0.6,-1.39 0.4,-0.37 0.96,-0.56 1.69,-0.56 0.32,0 0.7,0.06 1.16,0.18 0.23,0.06 0.41,0.09 0.55,0.09 0.2,0 0.36,-0.09 0.48,-0.27l0.28 0zm5.47 0c0.41,0 0.79,0.09 1.15,0.28 0.36,0.19 0.63,0.45 0.81,0.78 0.18,0.33 0.27,0.7 0.27,1.11 0,0.83 -0.23,1.66 -0.7,2.49 -0.46,0.83 -1.08,1.49 -1.84,1.96 -0.76,0.48 -1.53,0.72 -2.3,0.72 -0.7,0 -1.24,-0.21 -1.62,-0.62 -0.38,-0.42 -0.57,-0.92 -0.57,-1.52 0,-0.71 0.14,-1.38 0.43,-2 0.28,-0.62 0.65,-1.17 1.09,-1.63 0.44,-0.46 0.94,-0.84 1.51,-1.13 0.57,-0.29 1.16,-0.43 1.77,-0.43zm-0.32 0.41c-0.27,0 -0.5,0.08 -0.68,0.24 -0.36,0.32 -0.77,1.08 -1.22,2.26 -0.45,1.19 -0.68,2.26 -0.68,3.21 0,0.24 0.07,0.43 0.22,0.58 0.14,0.16 0.32,0.23 0.51,0.23 0.2,0 0.38,-0.06 0.53,-0.18 0.23,-0.18 0.5,-0.6 0.83,-1.24 0.33,-0.64 0.6,-1.35 0.81,-2.13 0.21,-0.78 0.32,-1.49 0.32,-2.13 0,-0.27 -0.06,-0.47 -0.19,-0.62 -0.13,-0.14 -0.28,-0.22 -0.45,-0.22zm8.22 -3.96l-1.37 4.63c0.39,-0.44 0.71,-0.72 0.97,-0.87 0.26,-0.14 0.54,-0.22 0.84,-0.22 0.58,0 1.02,0.22 1.31,0.66 0.29,0.44 0.44,0.96 0.44,1.53 0,1.38 -0.49,2.62 -1.48,3.71 -0.87,0.96 -1.86,1.44 -2.98,1.44 -0.83,0 -1.7,-0.24 -2.63,-0.74l2.37 -8.11c0.11,-0.38 0.17,-0.65 0.19,-0.81 0,-0.13 -0.06,-0.24 -0.17,-0.32 -0.16,-0.11 -0.39,-0.16 -0.71,-0.14l0.06 -0.32 2.66 -0.46 0.48 0zm-3.01 10.22c0.23,0.16 0.44,0.23 0.62,0.23 0.26,0 0.48,-0.06 0.65,-0.16 0.28,-0.17 0.57,-0.49 0.88,-0.95 0.3,-0.46 0.56,-1.01 0.77,-1.66 0.2,-0.65 0.31,-1.29 0.31,-1.93 0,-0.37 -0.08,-0.64 -0.23,-0.83 -0.16,-0.19 -0.33,-0.29 -0.53,-0.29 -0.33,0 -0.62,0.18 -0.87,0.54 -0.17,0.23 -0.35,0.73 -0.55,1.49l-1.05 3.55zm9.72 -6.67l-1.37 4.33c0.93,-2.11 1.63,-3.41 2.1,-3.9 0.28,-0.29 0.56,-0.43 0.87,-0.43 0.21,0 0.38,0.08 0.51,0.23 0.13,0.16 0.19,0.38 0.19,0.66 0,0.5 -0.12,0.91 -0.35,1.25 -0.15,0.22 -0.32,0.32 -0.5,0.32 -0.2,0 -0.35,-0.09 -0.45,-0.28 -0.1,-0.19 -0.17,-0.3 -0.21,-0.33 -0.04,-0.03 -0.08,-0.05 -0.13,-0.05 -0.05,0 -0.1,0.02 -0.16,0.05 -0.11,0.06 -0.26,0.21 -0.43,0.45 -0.18,0.24 -0.4,0.64 -0.66,1.2 -0.26,0.56 -0.46,1.04 -0.61,1.43 -0.14,0.39 -0.37,1.12 -0.67,2.2l-1.88 0 1.46 -5.1c0.1,-0.38 0.14,-0.63 0.14,-0.75 0,-0.14 -0.03,-0.25 -0.09,-0.32 -0.06,-0.08 -0.14,-0.13 -0.25,-0.17 -0.11,-0.03 -0.32,-0.05 -0.65,-0.05l0.06 -0.22 2.57 -0.52 0.51 0zm4.55 4.24c-0.04,0.33 -0.07,0.61 -0.07,0.82 0,0.39 0.11,0.69 0.34,0.92 0.22,0.23 0.52,0.35 0.9,0.35 0.36,0 0.72,-0.08 1.08,-0.23 0.36,-0.16 0.78,-0.42 1.26,-0.81l0.24 0.19c-0.59,0.67 -1.16,1.15 -1.72,1.43 -0.56,0.28 -1.18,0.43 -1.85,0.43 -0.86,0 -1.45,-0.2 -1.78,-0.61 -0.33,-0.41 -0.49,-0.88 -0.49,-1.42 0,-0.84 0.24,-1.68 0.74,-2.52 0.49,-0.84 1.16,-1.52 2,-2.02 0.84,-0.51 1.69,-0.76 2.54,-0.76 0.43,0 0.76,0.1 0.98,0.31 0.22,0.2 0.33,0.46 0.33,0.77 0,0.38 -0.11,0.74 -0.32,1.09 -0.3,0.48 -0.68,0.87 -1.13,1.16 -0.45,0.3 -0.96,0.52 -1.52,0.67 -0.38,0.1 -0.88,0.18 -1.52,0.23zm0.07 -0.39c0.45,-0.07 0.81,-0.16 1.06,-0.27 0.25,-0.11 0.5,-0.3 0.74,-0.55 0.24,-0.25 0.45,-0.57 0.63,-0.96 0.18,-0.39 0.26,-0.75 0.26,-1.08 0,-0.14 -0.04,-0.25 -0.12,-0.34 -0.08,-0.08 -0.18,-0.12 -0.3,-0.12 -0.25,0 -0.53,0.17 -0.84,0.51 -0.57,0.63 -1.04,1.56 -1.42,2.81z"/>
 </g>
</svg>
