<?xml version="1.0" encoding="UTF-8"?>
<!DOCTYPE svg PUBLIC "-//W3C//DTD SVG 1.1//EN" "http://www.w3.org/Graphics/SVG/1.1/DTD/svg11.dtd">
<!-- Creator: CorelDRAW 2026 -->
<svg xmlns="http://www.w3.org/2000/svg" xml:space="preserve" width="13.0824mm" height="21.6105mm" version="1.1" style="shape-rendering:geometricPrecision; text-rendering:geometricPrecision; image-rendering:optimizeQuality; fill-rule:evenodd; clip-rule:evenodd"
viewBox="0 0 5.32 8.79"
 xmlns:xlink="http://www.w3.org/1999/xlink"
 xmlns:xodm="http://www.corel.com/coreldraw/odm/2003">
 <defs>
  <style type="text/css">
   <![CDATA[
    .fil0 {fill:#FEFEFE;fill-rule:nonzero}
   ]]>
  </style>
 </defs>
 <g id="Capa_x0020_1">
  <metadata id="CorelCorpID_0Corel-Layer"/>
  <path class="fil0" d="M4.31 8.12c0,0.37 -0.75,0.67 -1.68,0.67 -0.93,0 -1.68,-0.3 -1.68,-0.67 0,-0.37 0.75,-0.67 1.68,-0.67 0.93,0 1.68,0.3 1.68,0.67z"/>
  <path class="fil0" d="M2.66 4.06c-0.82,0 -1.49,-0.67 -1.49,-1.49 0,-0.82 0.67,-1.49 1.49,-1.49 0.82,0 1.49,0.67 1.49,1.49 0,0.82 -0.67,1.49 -1.49,1.49zm0 -4.06c-1.47,0 -2.66,1.19 -2.66,2.66 0,0.45 0.11,0.87 0.31,1.24 0.39,0.79 1.02,1.7 1.75,2.66 0.13,0.17 0.26,0.35 0.39,0.52 0.11,0.14 0.32,0.14 0.43,0 0.13,-0.18 0.27,-0.35 0.4,-0.52 0.73,-0.98 1.37,-1.89 1.75,-2.68 0.19,-0.37 0.3,-0.78 0.3,-1.22 0,-1.47 -1.19,-2.66 -2.66,-2.66z"/>
 </g>
</svg>
