<?xml version="1.0" encoding="UTF-8"?>
<!DOCTYPE svg PUBLIC "-//W3C//DTD SVG 1.1//EN" "http://www.w3.org/Graphics/SVG/1.1/DTD/svg11.dtd">
<!-- Creator: CorelDRAW 2026 -->
<svg xmlns="http://www.w3.org/2000/svg" xml:space="preserve" width="16.0484mm" height="12.9564mm" version="1.1" style="shape-rendering:geometricPrecision; text-rendering:geometricPrecision; image-rendering:optimizeQuality; fill-rule:evenodd; clip-rule:evenodd"
viewBox="0 0 19.79 15.98"
 xmlns:xlink="http://www.w3.org/1999/xlink"
 xmlns:xodm="http://www.corel.com/coreldraw/odm/2003">
 <defs>
  <style type="text/css">
   <![CDATA[
    .fil0 {fill:#81703A;fill-rule:nonzero}
    .fil1 {fill:#FCFCFC;fill-rule:nonzero}
   ]]>
  </style>
 </defs>
 <g id="Capa_x0020_1">
  <metadata id="CorelCorpID_0Corel-Layer"/>
  <path class="fil0" d="M4.59 6.53c0.9,0.9 1.8,1.8 2.7,2.7 0.08,0.08 0.17,0.16 0.21,0.27 0.23,0.49 -0.13,1.03 -0.68,0.99 -0.43,-0.03 -0.86,-0.07 -1.29,-0.05 -0.31,0.01 -0.61,0.04 -0.9,0.16 -0.18,0.07 -0.24,0.19 -0.2,0.37 0.04,0.21 0.13,0.41 0.21,0.61 0.06,0.13 0.14,0.17 0.28,0.16 1.14,-0.02 2.27,0.12 3.38,0.39 1.81,0.44 3.49,1.19 5.07,2.16 0.14,0.09 0.21,0.06 0.32,-0.05 1.39,-1.4 2.78,-2.79 4.17,-4.19 0.38,-0.38 0.39,-0.39 0.14,-0.86 -0.63,-1.19 -1.25,-2.38 -2.05,-3.47 -0.78,-1.06 -1.63,-2.07 -2.51,-3.05 -0.28,-0.31 -0.57,-0.61 -0.87,-0.89 -0.53,-0.51 -0.95,-0.51 -1.44,-0.04 -0.13,0.12 -0.11,0.19 0,0.3 0.42,0.41 0.83,0.83 1.24,1.25 0.29,0.31 0.26,0.76 -0.07,1.02 -0.28,0.22 -0.66,0.2 -0.93,-0.07 -0.46,-0.45 -0.9,-0.92 -1.37,-1.37 -0.52,-0.51 -0.96,-0.51 -1.45,-0.03 -0.12,0.12 -0.1,0.18 0.01,0.29 0.36,0.34 0.7,0.7 1.05,1.05 0.08,0.08 0.15,0.15 0.2,0.25 0.14,0.3 0.05,0.66 -0.21,0.85 -0.28,0.21 -0.65,0.19 -0.9,-0.05 -0.38,-0.37 -0.75,-0.75 -1.13,-1.12 -0.52,-0.49 -0.95,-0.49 -1.43,-0.01 -0.11,0.11 -0.1,0.17 0.01,0.27 0.38,0.36 0.74,0.74 1.11,1.11 0.21,0.21 0.27,0.46 0.17,0.73 -0.18,0.5 -0.78,0.61 -1.17,0.22 -1.17,-1.17 -2.34,-2.34 -3.51,-3.51 -0.19,-0.19 -0.4,-0.34 -0.66,-0.43 -0.2,-0.07 -0.4,-0.08 -0.56,0.08 -0.17,0.17 -0.16,0.37 -0.09,0.58 0.09,0.25 0.25,0.47 0.43,0.66 0.91,0.91 1.81,1.81 2.72,2.72zm-1.77 0.19c-0.68,-0.68 -1.37,-1.35 -2.03,-2.04 -0.51,-0.53 -0.84,-1.15 -0.79,-1.92 0.05,-0.86 0.74,-1.61 1.62,-1.69 0.77,-0.07 1.41,0.22 1.95,0.75 0.44,0.42 0.87,0.86 1.29,1.29 0.13,0.13 0.21,0.13 0.33,-0 0.34,-0.38 0.75,-0.65 1.27,-0.74 0.14,-0.03 0.29,-0.03 0.43,-0.01 0.16,0.02 0.26,-0.05 0.37,-0.15 0.3,-0.29 0.56,-0.61 0.93,-0.82 0.42,-0.24 0.86,-0.34 1.34,-0.24 0.16,0.03 0.27,-0.01 0.38,-0.12 0.23,-0.24 0.46,-0.49 0.75,-0.67 0.75,-0.49 1.5,-0.42 2.25,-0.01 0.63,0.35 1.1,0.88 1.56,1.42 0.18,0.21 0.36,0.4 0.54,0.6 0.61,0.67 1.17,1.38 1.72,2.09 0.53,0.67 1.01,1.38 1.43,2.12 0.37,0.66 0.75,1.33 1.09,2.01 0.14,0.27 0.27,0.55 0.41,0.82 0.2,0.39 0.15,0.66 -0.15,0.97 -1.33,1.33 -2.66,2.65 -3.98,3.99 -0.36,0.36 -0.74,0.71 -1.06,1.11 -0.14,0.17 -0.32,0.29 -0.49,0.41 -0.23,0.16 -0.49,0.12 -0.73,-0.02 -0.47,-0.28 -0.92,-0.57 -1.39,-0.83 -1.1,-0.61 -2.26,-1.1 -3.47,-1.43 -1.28,-0.35 -2.57,-0.52 -3.9,-0.45 -0.4,0.02 -0.64,-0.15 -0.83,-0.47 -0.28,-0.48 -0.53,-0.96 -0.61,-1.52 -0.07,-0.53 0.07,-0.99 0.38,-1.41 0.13,-0.18 0.34,-0.27 0.53,-0.36 0.29,-0.14 0.6,-0.24 0.92,-0.29 0.07,-0.01 0.18,0.04 0.21,-0.06 0.02,-0.09 -0.08,-0.13 -0.13,-0.18 -0.67,-0.68 -1.35,-1.35 -2.02,-2.02 -0.04,-0.04 -0.07,-0.07 -0.11,-0.11 -0,0 -0,0 -0,0z"/>
  <path class="fil1" d="M4.59 6.53c-0.91,-0.91 -1.81,-1.81 -2.72,-2.72 -0.19,-0.19 -0.34,-0.4 -0.43,-0.66 -0.07,-0.21 -0.08,-0.41 0.09,-0.58 0.16,-0.16 0.36,-0.15 0.56,-0.08 0.25,0.09 0.47,0.24 0.66,0.43 1.17,1.17 2.34,2.34 3.51,3.51 0.39,0.39 1,0.27 1.17,-0.22 0.1,-0.27 0.04,-0.52 -0.17,-0.73 -0.37,-0.37 -0.74,-0.74 -1.11,-1.11 -0.11,-0.1 -0.12,-0.16 -0,-0.27 0.49,-0.48 0.92,-0.49 1.43,0.01 0.38,0.37 0.75,0.75 1.13,1.12 0.25,0.25 0.62,0.26 0.9,0.05 0.26,-0.19 0.35,-0.55 0.21,-0.85 -0.05,-0.1 -0.12,-0.18 -0.2,-0.25 -0.35,-0.35 -0.69,-0.7 -1.05,-1.05 -0.11,-0.11 -0.13,-0.17 -0.01,-0.29 0.49,-0.48 0.93,-0.48 1.45,0.03 0.46,0.45 0.91,0.92 1.37,1.37 0.27,0.27 0.66,0.3 0.93,0.07 0.32,-0.26 0.36,-0.71 0.07,-1.02 -0.41,-0.43 -0.82,-0.84 -1.24,-1.25 -0.12,-0.11 -0.13,-0.18 -0,-0.3 0.49,-0.46 0.9,-0.46 1.44,0.04 0.3,0.29 0.59,0.58 0.87,0.89 0.88,0.98 1.73,1.98 2.51,3.05 0.8,1.09 1.42,2.28 2.05,3.47 0.25,0.47 0.24,0.47 -0.14,0.86 -1.39,1.4 -2.78,2.79 -4.17,4.19 -0.11,0.11 -0.18,0.13 -0.32,0.05 -1.58,-0.97 -3.26,-1.72 -5.07,-2.16 -1.11,-0.27 -2.24,-0.41 -3.38,-0.39 -0.14,0 -0.22,-0.03 -0.28,-0.16 -0.09,-0.2 -0.17,-0.39 -0.21,-0.61 -0.03,-0.18 0.03,-0.3 0.2,-0.37 0.29,-0.12 0.6,-0.15 0.9,-0.16 0.43,-0.02 0.86,0.03 1.29,0.05 0.55,0.03 0.91,-0.5 0.68,-0.99 -0.05,-0.11 -0.13,-0.18 -0.21,-0.27 -0.9,-0.9 -1.8,-1.8 -2.7,-2.7z"/>
 </g>
</svg>
